<svg width="70" height="70" viewBox="0 0 70 70" fill="none" xmlns="http://www.w3.org/2000/svg">
<path d="M62.7222 7.77778V7.27778H62.2222H7.77778H7.27778V7.77778V62.2222V62.7222H7.77778H62.2222H62.7222V62.2222V7.77778ZM7.77778 0.5H62.2222C66.2239 0.5 69.5 3.77614 69.5 7.77778V62.2222C69.5 66.2239 66.2239 69.5 62.2222 69.5H7.77778C3.77614 69.5 0.5 66.2239 0.5 62.2222V7.77778C0.5 3.77614 3.77614 0.5 7.77778 0.5Z" fill="#5442FB" stroke="white"/>
<path d="M42.2779 53.9444H16.0557V47.1667H42.2779V53.9444ZM53.9446 38.3889H16.0557V31.6111H53.9446V38.3889ZM53.9446 22.8333H16.0557V16.0555H53.9446V22.8333Z" fill="#5442FB" stroke="white"/>
</svg>
