<svg width="75" height="70" viewBox="0 0 75 70" fill="none" xmlns="http://www.w3.org/2000/svg">
<g clip-path="url(#clip0_197_119)">
<path d="M58.8128 2.33332H40.8855C40.3282 2.33291 39.7934 2.55312 39.398 2.94582L3.55802 38.7771C2.77345 39.5655 2.33301 40.6325 2.33301 41.7448C2.33301 42.857 2.77345 43.9241 3.55802 44.7125L20.6205 61.775C21.4092 62.5596 22.4764 63.0001 23.589 63.0001C24.7015 63.0001 25.7687 62.5596 26.5574 61.775L62.3872 25.9583C62.7799 25.5629 63.0001 25.0281 62.9997 24.4708V6.53332C63.0024 5.98212 62.896 5.43583 62.6867 4.9259C62.4774 4.41598 62.1693 3.95248 61.7802 3.56211C61.391 3.17174 60.9285 2.8622 60.4192 2.65131C59.91 2.44042 59.364 2.33235 58.8128 2.33332V2.33332Z" stroke="#5442FB" stroke-width="5" stroke-linecap="round" stroke-linejoin="round"/>
<path d="M51.3337 18.6666C50.4107 18.6666 49.5084 18.393 48.741 17.8802C47.9736 17.3674 47.3754 16.6386 47.0222 15.7858C46.669 14.9331 46.5766 13.9948 46.7567 13.0896C46.9367 12.1843 47.3812 11.3528 48.0338 10.7002C48.6865 10.0475 49.518 9.60305 50.4232 9.42298C51.3285 9.24292 52.2668 9.33533 53.1195 9.68854C53.9723 10.0418 54.7011 10.6399 55.2139 11.4073C55.7266 12.1748 56.0003 13.077 56.0003 14C56.0003 15.2377 55.5087 16.4246 54.6335 17.2998C53.7583 18.175 52.5713 18.6666 51.3337 18.6666Z" fill="#5442FB"/>
<path d="M33.542 67.6666L71.7503 29.4583C71.9403 29.2667 72.0898 29.0389 72.19 28.7884C72.2902 28.5378 72.3391 28.2697 72.3337 28V9.33331" stroke="#5442FB" stroke-width="5" stroke-linecap="round" stroke-linejoin="round"/>
</g>
<defs>
<clipPath id="clip0_197_119">
<rect width="74.8125" height="70" fill="white"/>
</clipPath>
</defs>
</svg>
