<svg width="75" height="70" viewBox="0 0 75 70" fill="none" xmlns="http://www.w3.org/2000/svg">
<path d="M62.5 30H57.5V35H62.5C64.4885 35.002 66.395 35.7928 67.8011 37.1989C69.2072 38.605 69.998 40.5115 70 42.5V52.5H75V42.5C74.996 39.186 73.6778 36.0089 71.3345 33.6655C68.9911 31.3222 65.814 30.004 62.5 30Z" fill="#5442FB"/>
<path d="M57.5 5C58.9834 5 60.4334 5.43987 61.6668 6.26398C62.9001 7.08809 63.8614 8.25943 64.4291 9.62987C64.9968 11.0003 65.1453 12.5083 64.8559 13.9632C64.5665 15.418 63.8522 16.7544 62.8033 17.8033C61.7544 18.8522 60.418 19.5665 58.9632 19.8559C57.5083 20.1453 56.0003 19.9968 54.6299 19.4291C53.2594 18.8614 52.0881 17.9001 51.264 16.6668C50.4399 15.4334 50 13.9834 50 12.5C50 10.5109 50.7902 8.60322 52.1967 7.1967C53.6032 5.79018 55.5109 5 57.5 5ZM57.5 0C55.0277 0 52.611 0.733112 50.5554 2.10663C48.4998 3.48015 46.8976 5.43238 45.9515 7.71646C45.0054 10.0005 44.7579 12.5139 45.2402 14.9386C45.7225 17.3634 46.913 19.5907 48.6612 21.3388C50.4093 23.087 52.6366 24.2775 55.0614 24.7598C57.4861 25.2421 59.9995 24.9946 62.2836 24.0485C64.5676 23.1024 66.5199 21.5002 67.8934 19.4446C69.2669 17.389 70 14.9723 70 12.5C70 9.18479 68.683 6.00537 66.3388 3.66117C63.9946 1.31696 60.8152 0 57.5 0Z" fill="#5442FB"/>
<path d="M55 70H50V65C49.998 63.0115 49.2072 61.105 47.8011 59.6989C46.395 58.2928 44.4885 57.502 42.5 57.5H32.5C30.5115 57.502 28.605 58.2928 27.1989 59.6989C25.7928 61.105 25.002 63.0115 25 65V70H20V65C20.004 61.686 21.3222 58.5089 23.6655 56.1655C26.0089 53.8222 29.186 52.504 32.5 52.5H42.5C45.814 52.504 48.9911 53.8222 51.3345 56.1655C53.6778 58.5089 54.996 61.686 55 65V70Z" fill="#5442FB"/>
<path d="M37.5 27.5C38.9834 27.5 40.4334 27.9399 41.6668 28.764C42.9002 29.5881 43.8614 30.7594 44.4291 32.1299C44.9968 33.5003 45.1453 35.0083 44.8559 36.4632C44.5665 37.918 43.8522 39.2544 42.8033 40.3033C41.7544 41.3522 40.418 42.0665 38.9632 42.3559C37.5083 42.6453 36.0003 42.4968 34.6299 41.9291C33.2594 41.3614 32.0881 40.4001 31.264 39.1668C30.4399 37.9334 30 36.4834 30 35C30 33.0109 30.7902 31.1032 32.1967 29.6967C33.6032 28.2902 35.5109 27.5 37.5 27.5ZM37.5 22.5C35.0277 22.5 32.611 23.2331 30.5554 24.6066C28.4998 25.9801 26.8976 27.9324 25.9515 30.2165C25.0054 32.5005 24.7579 35.0139 25.2402 37.4386C25.7225 39.8634 26.913 42.0907 28.6612 43.8388C30.4093 45.587 32.6366 46.7775 35.0614 47.2598C37.4861 47.7421 39.9995 47.4946 42.2836 46.5485C44.5676 45.6024 46.5199 44.0002 47.8934 41.9446C49.2669 39.889 50 37.4723 50 35C50 31.6848 48.683 28.5054 46.3388 26.1612C43.9946 23.817 40.8152 22.5 37.5 22.5Z" fill="#5442FB"/>
<path d="M17.5 30H12.5C9.18601 30.004 6.00889 31.3222 3.66555 33.6655C1.3222 36.0089 0.00396964 39.186 0 42.5V52.5H5V42.5C5.00199 40.5115 5.7928 38.605 7.19889 37.1989C8.60499 35.7928 10.5115 35.002 12.5 35H17.5V30Z" fill="#5442FB"/>
<path d="M17.5 5C18.9834 5 20.4334 5.43987 21.6668 6.26398C22.9002 7.08809 23.8614 8.25943 24.4291 9.62987C24.9968 11.0003 25.1453 12.5083 24.8559 13.9632C24.5665 15.418 23.8522 16.7544 22.8033 17.8033C21.7544 18.8522 20.418 19.5665 18.9632 19.8559C17.5083 20.1453 16.0003 19.9968 14.6299 19.4291C13.2594 18.8614 12.0881 17.9001 11.264 16.6668C10.4399 15.4334 10 13.9834 10 12.5C10 10.5109 10.7902 8.60322 12.1967 7.1967C13.6032 5.79018 15.5109 5 17.5 5ZM17.5 0C15.0277 0 12.611 0.733112 10.5554 2.10663C8.49976 3.48015 6.89761 5.43238 5.95151 7.71646C5.00542 10.0005 4.75787 12.5139 5.24019 14.9386C5.7225 17.3634 6.91301 19.5907 8.66117 21.3388C10.4093 23.087 12.6366 24.2775 15.0614 24.7598C17.4861 25.2421 19.9995 24.9946 22.2835 24.0485C24.5676 23.1024 26.5199 21.5002 27.8934 19.4446C29.2669 17.389 30 14.9723 30 12.5C30 9.18479 28.683 6.00537 26.3388 3.66117C23.9946 1.31696 20.8152 0 17.5 0Z" fill="#5442FB"/>
</svg>
