<svg width="120" height="120" viewBox="0 0 120 120" fill="none" xmlns="http://www.w3.org/2000/svg">
<path d="M106.295 59.74C107.349 59.4696 108.284 58.8581 108.954 58.0007C109.625 57.1433 109.992 56.0882 110 55V40C110 38.6778 109.476 37.4096 108.542 36.4733C107.609 35.537 106.342 35.009 105.02 35.005V30H105C105 18.97 96.03 10 85 10H35C23.97 10 15 18.97 15 30V35C13.6739 35 12.4021 35.5268 11.4645 36.4645C10.5268 37.4021 10 38.6739 10 40V55C10 57.305 11.585 59.16 13.71 59.74C11.3069 63.0899 10.0115 67.1073 10.005 71.23L10.025 90.015C10.03 93.68 12.045 96.86 15 98.595V105C15 106.326 15.5268 107.598 16.4645 108.536C17.4021 109.473 18.6739 110 20 110H25C26.3261 110 27.5979 109.473 28.5355 108.536C29.4732 107.598 30 106.326 30 105V100H90V105C90 106.326 90.5268 107.598 91.4645 108.536C92.4021 109.473 93.6739 110 95 110H100C101.326 110 102.598 109.473 103.536 108.536C104.473 107.598 105 106.326 105 105V98.63C105.767 98.2021 106.474 97.676 107.105 97.065C108.99 95.175 110.03 92.66 110.025 89.99L110.005 71.195C109.985 67.0844 108.689 63.0815 106.295 59.74ZM25 90H20.025L20.005 71.215C20 68.92 20.81 66.765 22.22 65H97.775C99.19 66.765 100 68.915 100.005 71.21L100.03 90H25ZM55.02 40V55H25V40H55.02ZM95 55H65.02V40H95V55ZM35 20H85C90.515 20 95 24.485 95 30H75V25H45V30H25C25 24.485 29.485 20 35 20Z" fill="#5442FB"/>
<path d="M32.5 85C36.6421 85 40 81.6421 40 77.5C40 73.3579 36.6421 70 32.5 70C28.3579 70 25 73.3579 25 77.5C25 81.6421 28.3579 85 32.5 85Z" fill="#5442FB"/>
<path d="M87.5 85C91.6421 85 95 81.6421 95 77.5C95 73.3579 91.6421 70 87.5 70C83.3579 70 80 73.3579 80 77.5C80 81.6421 83.3579 85 87.5 85Z" fill="#5442FB"/>
</svg>
