<svg width="127" height="120" viewBox="0 0 127 120" fill="none" xmlns="http://www.w3.org/2000/svg">
<path d="M93.2368 25.2632V26.7632H94.7368H113.684C119.866 26.7632 124.816 31.7126 124.816 37.8947V107.368C124.816 113.551 119.866 118.5 113.684 118.5H12.6316C6.44948 118.5 1.5 113.551 1.5 107.368V37.8947C1.5 31.7126 6.44948 26.7632 12.6316 26.7632H31.5789H33.0789V25.2632V12.6316C33.0789 6.44948 38.0284 1.5 44.2105 1.5H82.1053C88.2874 1.5 93.2368 6.44948 93.2368 12.6316V25.2632ZM44.2105 11.1316H42.7105V12.6316V25.2632V26.7632H44.2105H82.1053H83.6053V25.2632V12.6316V11.1316H82.1053H44.2105ZM113.684 108.868H115.184V107.368V94.7368V93.2368H113.684H12.6316H11.1316V94.7368V107.368V108.868H12.6316H113.684ZM113.684 77.2895H115.184V75.7895V44.2105C115.184 39.9084 111.671 36.3947 107.368 36.3947H94.7368H93.2368V37.8947V44.2105C93.2368 46.8558 91.0663 49.0263 88.4211 49.0263C85.7758 49.0263 83.6053 46.8558 83.6053 44.2105V37.8947V36.3947H82.1053H44.2105H42.7105V37.8947V44.2105C42.7105 46.8558 40.54 49.0263 37.8947 49.0263C35.2495 49.0263 33.0789 46.8558 33.0789 44.2105V37.8947V36.3947H31.5789H18.9474C14.6453 36.3947 11.1316 39.9084 11.1316 44.2105V75.7895V77.2895H12.6316H113.684Z" fill="#5442FB" stroke="white" stroke-width="3"/>
</svg>
