<svg width="120" height="120" viewBox="0 0 120 120" fill="none" xmlns="http://www.w3.org/2000/svg">
<path d="M114.545 60C114.545 29.8745 90.125 5.45453 59.9996 5.45453C29.8741 5.45453 5.4541 29.8745 5.4541 60C5.4541 90.1254 29.8741 114.545 59.9996 114.545" stroke="#F7F7F5" stroke-width="6" stroke-linecap="round" stroke-linejoin="round"/>
<path d="M65.4541 5.72723C65.4541 5.72723 81.8177 27.2727 81.8177 60" stroke="#F7F7F5" stroke-width="6" stroke-linecap="round" stroke-linejoin="round"/>
<path d="M54.5453 114.273C54.5453 114.273 38.1816 92.7272 38.1816 60C38.1816 27.2727 54.5453 5.72723 54.5453 5.72723" stroke="#F7F7F5" stroke-width="6" stroke-linecap="round" stroke-linejoin="round"/>
<path d="M8.89062 79.0909H59.9997" stroke="#F7F7F5" stroke-width="6" stroke-linecap="round" stroke-linejoin="round"/>
<path d="M8.89062 40.9091H111.109" stroke="#F7F7F5" stroke-width="6" stroke-linecap="round" stroke-linejoin="round"/>
<path d="M113.885 92.2746C116.58 93.9327 116.411 97.9636 113.64 98.28L99.638 99.8673L93.3598 112.478C92.1162 114.982 88.2707 113.755 87.6326 110.656L80.7871 77.2964C80.2471 74.6782 82.6035 73.0309 84.878 74.4327L113.885 92.2746V92.2746Z" stroke="#F7F7F5" stroke-width="6"/>
</svg>
