<svg width="12" height="12" viewBox="0 0 12 12" fill="none" xmlns="http://www.w3.org/2000/svg">
<g opacity="0.5">
<path fill-rule="evenodd" clip-rule="evenodd" d="M12 0.468725C12 0.344412 11.9473 0.22519 11.8536 0.137287C11.7598 0.0493835 11.6326 0 11.5 0H5.50034C5.36774 0 5.24057 0.0493835 5.14681 0.137287C5.05304 0.22519 5.00037 0.344412 5.00037 0.468725C5.00037 0.593039 5.05304 0.712261 5.14681 0.800164C5.24057 0.888067 5.36774 0.937451 5.50034 0.937451H10.2931L0.146624 10.4488C0.100138 10.4924 0.0632641 10.5441 0.0381063 10.6011C0.0129486 10.658 0 10.7191 0 10.7807C0 10.8423 0.0129486 10.9033 0.0381063 10.9603C0.0632641 11.0172 0.100138 11.069 0.146624 11.1125C0.193109 11.1561 0.248296 11.1907 0.309032 11.2143C0.369768 11.2379 0.434865 11.25 0.500605 11.25C0.566346 11.25 0.631442 11.2379 0.692179 11.2143C0.752915 11.1907 0.808101 11.1561 0.854587 11.1125L11.0001 1.60023V6.09343C11.0001 6.21774 11.0527 6.33697 11.1465 6.42487C11.2403 6.51277 11.3674 6.56215 11.5 6.56215C11.6326 6.56215 11.7598 6.51277 11.8536 6.42487C11.9473 6.33697 12 6.21774 12 6.09343V0.468725Z" fill="black"/>
</g>
</svg>
